#N canvas 50 50 900 560 12;
#X obj 10 20 netreceive -u -b 5005;
#X obj 10 55 oscparse;
#X obj 10 90 list trim;
#X obj 10 125 route enc btn seq;
#X obj 10 165 route 0 1 3 4;
#X obj 10 200 expr ($f1/127.0)*450+50;
#X obj 10 235 s pitch_303;
#X obj 220 200 expr ($f1/127.0)*30;
#X obj 220 235 s res_303;
#X obj 430 200 expr ($f1/127.0)*3900+100;
#X obj 430 235 s cutoff_303;
#X obj 640 200 expr $f1/127.0;
#X obj 640 235 s amp_303;
#X obj 10 300 r pitch_303;
#X obj 10 335 phasor~;
#X obj 10 370 *~ 2;
#X obj 10 405 +~ -1;
#X obj 200 300 r cutoff_303;
#X obj 200 335 r res_303;
#X obj 10 440 vcf~;
#X obj 400 300 r amp_303;
#X obj 10 475 *~;
#X obj 10 510 dac~;
#X obj 600 430 loadbang;
#X msg 600 460 110;
#X msg 700 460 800;
#X msg 800 460 0.3;
#X msg 700 490 0.7;
#X connect 0 0 1 0;
#X connect 1 0 2 0;
#X connect 2 0 3 0;
#X connect 3 0 4 0;
#X connect 4 0 5 0;
#X connect 5 0 6 0;
#X connect 4 1 7 0;
#X connect 7 0 8 0;
#X connect 4 2 9 0;
#X connect 9 0 10 0;
#X connect 4 3 11 0;
#X connect 11 0 12 0;
#X connect 13 0 14 0;
#X connect 14 0 15 0;
#X connect 15 0 16 0;
#X connect 16 0 19 0;
#X connect 17 0 19 1;
#X connect 18 0 19 2;
#X connect 19 1 21 0;
#X connect 20 0 21 1;
#X connect 21 0 22 0;
#X connect 21 0 22 1;
#X connect 23 0 24 0;
#X connect 23 0 25 0;
#X connect 23 0 26 0;
#X connect 23 0 27 0;
#X connect 24 0 6 0;
#X connect 25 0 10 0;
#X connect 26 0 8 0;
#X connect 27 0 12 0;
