#N canvas 50 50 900 780 12;
#X obj 10 20 netreceive -u -b 5005;
#X obj 10 55 oscparse;
#X obj 10 90 list trim;
#X obj 10 125 route enc btn seq oct;
#X obj 10 165 route 0 3 4;
#X obj 10 200 expr ($f1/127.0)*400+100;
#X obj 10 235 s pitch_ctrl;
#X obj 220 200 expr ($f1/127.0)*4800+200;
#X obj 220 235 s master_cutoff;
#X obj 430 200 expr $f1/127.0;
#X obj 430 235 s master_amp;
#X obj 490 165 route 0;
#X obj 490 200 sel 1;
#X obj 610 165 route trig;
#X obj 610 200 unpack f f;
#X obj 680 235 == 1;
#X obj 610 270 spigot;
#X obj 610 305 select 0 1 2 3 4 5 6 7;
#N canvas 0 50 320 300 bd_oct;
#X obj 100 20 inlet;
#X msg 30 55 1000 1 \, 80 15;
#X obj 30 90 line~;
#X obj 30 130 osc~;
#X msg 175 55 1 1 \, 0 350;
#X obj 175 90 line~;
#X obj 100 170 *~;
#X obj 100 220 outlet~;
#X connect 0 0 1 0;
#X connect 0 0 4 0;
#X connect 1 0 2 0;
#X connect 2 0 3 0;
#X connect 4 0 5 0;
#X connect 3 0 6 0;
#X connect 5 0 6 1;
#X connect 6 0 7 0;
#X restore 10 420 pd bd_oct;
#N canvas 0 50 400 380 sd_oct;
#X obj 100 20 inlet;
#X msg 30 55 1 1 \, 0 15;
#X obj 30 90 line~;
#X obj 30 130 noise~;
#X obj 30 170 bp~ 300 3;
#X obj 100 210 *~;
#X msg 250 55 1 1 \, 0 80;
#X obj 250 90 line~;
#X obj 200 130 noise~;
#X obj 200 170 hip~ 2000;
#X obj 200 210 *~;
#X obj 150 260 +~;
#X obj 150 300 *~ 0.6;
#X obj 150 340 outlet~;
#X connect 0 0 1 0;
#X connect 0 0 6 0;
#X connect 1 0 2 0;
#X connect 3 0 4 0;
#X connect 4 0 5 0;
#X connect 2 0 5 1;
#X connect 6 0 7 0;
#X connect 8 0 9 0;
#X connect 9 0 10 0;
#X connect 7 0 10 1;
#X connect 5 0 11 0;
#X connect 10 0 11 1;
#X connect 11 0 12 0;
#X connect 12 0 13 0;
#X restore 120 420 pd sd_oct;
#N canvas 0 50 300 260 hh_oct;
#X obj 100 20 inlet;
#X msg 100 55 1 1 \, 0 250;
#X obj 100 90 line~;
#X obj 30 90 noise~;
#X obj 30 130 bp~ 10000 0.3;
#X obj 100 170 *~;
#X obj 100 210 outlet~;
#X connect 0 0 1 0;
#X connect 1 0 2 0;
#X connect 3 0 4 0;
#X connect 4 0 5 0;
#X connect 2 0 5 1;
#X connect 5 0 6 0;
#X restore 230 420 pd hh_oct;
#N canvas 0 50 380 340 cl_oct;
#X obj 100 20 inlet;
#X msg 100 55 0 0 \, 1 3 \, 0 3 \, 1 3 \, 0 3 \, 1 5 \, 0 80;
#X obj 100 90 line~;
#X obj 30 90 noise~;
#X obj 30 130 bp~ 1200 1;
#X obj 100 170 *~;
#X obj 100 210 *~ 0.8;
#X obj 100 250 outlet~;
#X connect 0 0 1 0;
#X connect 1 0 2 0;
#X connect 3 0 4 0;
#X connect 4 0 5 0;
#X connect 2 0 5 1;
#X connect 5 0 6 0;
#X connect 6 0 7 0;
#X restore 340 420 pd cl_oct;
#N canvas 0 50 300 260 bass_oct;
#X obj 100 20 inlet;
#X obj 30 60 phasor~ 110;
#X msg 30 100 1 1 \, 0 300;
#X obj 30 140 line~;
#X obj 100 180 *~;
#X obj 100 220 outlet~;
#X connect 0 0 2 0;
#X connect 2 0 3 0;
#X connect 1 0 4 0;
#X connect 3 0 4 1;
#X connect 4 0 5 0;
#X restore 450 420 pd bass_oct;
#N canvas 0 50 300 250 lead_oct;
#X obj 100 20 inlet;
#X obj 30 60 osc~ 440;
#X msg 30 100 1 1 \, 0 80;
#X obj 30 140 line~;
#X obj 100 175 *~;
#X obj 100 215 outlet~;
#X connect 0 0 2 0;
#X connect 2 0 3 0;
#X connect 1 0 4 0;
#X connect 3 0 4 1;
#X connect 4 0 5 0;
#X restore 560 420 pd lead_oct;
#N canvas 0 50 400 350 chord_oct;
#X obj 100 20 inlet;
#X obj 20 60 osc~ 220;
#X obj 130 60 osc~ 277;
#X obj 240 60 osc~ 330;
#X obj 75 100 +~;
#X obj 100 140 +~;
#X obj 100 180 *~ 0.33;
#X msg 30 100 1 0.8 \, 0 400;
#X obj 30 140 line~;
#X obj 100 220 *~;
#X obj 100 260 outlet~;
#X connect 0 0 7 0;
#X connect 7 0 8 0;
#X connect 1 0 4 0;
#X connect 2 0 4 1;
#X connect 4 0 5 0;
#X connect 3 0 5 1;
#X connect 5 0 6 0;
#X connect 6 0 9 0;
#X connect 8 0 9 1;
#X connect 9 0 10 0;
#X restore 670 420 pd chord_oct;
#N canvas 0 50 300 280 fx_oct;
#X obj 100 20 inlet;
#X obj 30 60 noise~;
#X obj 30 100 bp~ 800 2;
#X msg 30 140 1 1 \, 0 150;
#X obj 30 180 line~;
#X obj 100 220 *~;
#X obj 100 260 outlet~;
#X connect 0 0 3 0;
#X connect 3 0 4 0;
#X connect 1 0 2 0;
#X connect 2 0 5 0;
#X connect 4 0 5 1;
#X connect 5 0 6 0;
#X restore 780 420 pd fx_oct;
#X obj 10 490 +~;
#X obj 160 490 +~;
#X obj 310 490 +~;
#X obj 460 490 +~;
#X obj 85 525 +~;
#X obj 310 525 +~;
#X obj 200 560 +~;
#X obj 200 595 *~ 0.125;
#X obj 350 595 r master_amp;
#X obj 200 630 *~;
#X obj 200 665 lop~ 4000;
#X obj 350 665 r master_cutoff;
#X obj 200 700 dac~;
#X obj 600 600 loadbang;
#X obj 600 630 msg 0.8;
#X obj 700 630 msg 4000;
#X obj 700 165 route scene;
#X obj 700 200 s oct_scene;
#X connect 0 0 1 0;
#X connect 1 0 2 0;
#X connect 2 0 3 0;
#X connect 3 0 4 0;
#X connect 4 0 5 0;
#X connect 5 0 6 0;
#X connect 4 1 7 0;
#X connect 7 0 8 0;
#X connect 4 2 9 0;
#X connect 9 0 10 0;
#X connect 3 1 11 0;
#X connect 11 0 12 0;
#X connect 12 0 16 1;
#X connect 3 2 13 0;
#X connect 13 0 14 0;
#X connect 14 0 16 0;
#X connect 14 1 15 0;
#X connect 15 0 16 1;
#X connect 16 0 17 0;
#X connect 17 0 18 0;
#X connect 17 1 19 0;
#X connect 17 2 20 0;
#X connect 17 3 21 0;
#X connect 17 4 22 0;
#X connect 17 5 23 0;
#X connect 17 6 24 0;
#X connect 17 7 25 0;
#X connect 18 0 26 0;
#X connect 19 0 26 1;
#X connect 20 0 27 0;
#X connect 21 0 27 1;
#X connect 22 0 28 0;
#X connect 23 0 28 1;
#X connect 24 0 29 0;
#X connect 25 0 29 1;
#X connect 26 0 30 0;
#X connect 27 0 30 1;
#X connect 28 0 31 0;
#X connect 29 0 31 1;
#X connect 30 0 32 0;
#X connect 31 0 32 1;
#X connect 32 0 33 0;
#X connect 33 0 35 0;
#X connect 34 0 35 1;
#X connect 35 0 36 0;
#X connect 37 0 36 1;
#X connect 36 0 38 0;
#X connect 36 0 38 1;
#X connect 39 0 40 0;
#X connect 39 0 41 0;
#X connect 40 0 10 0;
#X connect 41 0 8 0;
#X connect 3 3 42 0;
#X connect 42 0 43 0;
