#N canvas 50 50 900 680 12;
#X obj 10 20 netreceive -u -b 5005;
#X obj 10 55 oscparse;
#X obj 10 90 list trim;
#X obj 10 125 route enc btn seq;
#X obj 10 165 route 0 3 4;
#X obj 10 200 expr ($f1/127.0)*400+100;
#X obj 10 235 s pitch_ctrl;
#X obj 220 200 expr ($f1/127.0)*4800+200;
#X obj 220 235 s master_cutoff;
#X obj 430 200 expr $f1/127.0;
#X obj 430 235 s master_amp;
#X obj 490 165 route 0;
#X obj 490 200 sel 1;
#X obj 610 165 route trig;
#X obj 610 200 unpack f f;
#X obj 680 235 == 1;
#X obj 610 270 spigot;
#X obj 610 305 select 0 1 2 3;
#N canvas 0 50 300 250 kick;
#X obj 100 20 inlet;
#X msg 30 55 60 1 \, 40 200;
#X obj 30 90 line~;
#X obj 30 130 osc~;
#X msg 175 55 1 1 \, 0 150;
#X obj 175 90 line~;
#X obj 100 170 *~;
#X obj 100 210 outlet~;
#X connect 0 0 1 0;
#X connect 0 0 4 0;
#X connect 1 0 2 0;
#X connect 2 0 3 0;
#X connect 4 0 5 0;
#X connect 3 0 6 0;
#X connect 5 0 6 1;
#X connect 6 0 7 0;
#X restore 10 355 pd kick;
#N canvas 0 50 300 260 snare;
#X obj 100 20 inlet;
#X msg 100 55 1 1 \, 0 120;
#X obj 100 90 line~;
#X obj 30 130 noise~;
#X obj 30 165 bp~ 400 5;
#X obj 100 210 *~;
#X obj 100 250 outlet~;
#X connect 0 0 1 0;
#X connect 1 0 2 0;
#X connect 3 0 4 0;
#X connect 4 0 5 0;
#X connect 2 0 5 1;
#X connect 5 0 6 0;
#X restore 120 355 pd snare;
#N canvas 0 50 300 260 hat;
#X obj 100 20 inlet;
#X msg 100 55 1 0 \, 0 40;
#X obj 100 90 line~;
#X obj 30 130 noise~;
#X obj 30 165 hip~ 8000;
#X obj 100 210 *~;
#X obj 100 250 outlet~;
#X connect 0 0 1 0;
#X connect 1 0 2 0;
#X connect 3 0 4 0;
#X connect 4 0 5 0;
#X connect 2 0 5 1;
#X connect 5 0 6 0;
#X restore 230 355 pd hat;
#N canvas 0 50 300 250 perc;
#X obj 100 20 inlet;
#X msg 30 55 600 1 \, 200 300;
#X obj 30 90 line~;
#X obj 30 130 osc~;
#X msg 175 55 1 1 \, 0 300;
#X obj 175 90 line~;
#X obj 100 170 *~;
#X obj 100 210 outlet~;
#X connect 0 0 1 0;
#X connect 0 0 4 0;
#X connect 1 0 2 0;
#X connect 2 0 3 0;
#X connect 4 0 5 0;
#X connect 3 0 6 0;
#X connect 5 0 6 1;
#X connect 6 0 7 0;
#X restore 340 355 pd perc;
#X obj 10 425 +~;
#X obj 160 425 +~;
#X obj 85 460 +~;
#X obj 85 495 *~ 0.25;
#X obj 245 495 r master_amp;
#X obj 85 530 *~;
#X obj 85 565 lop~ 1000;
#X obj 245 565 r master_cutoff;
#X obj 85 600 dac~;
#X obj 450 550 loadbang;
#X msg 450 580 0.8;
#X msg 550 580 2000;
#X connect 0 0 1 0;
#X connect 1 0 2 0;
#X connect 2 0 3 0;
#X connect 3 0 4 0;
#X connect 4 0 5 0;
#X connect 5 0 6 0;
#X connect 4 1 7 0;
#X connect 7 0 8 0;
#X connect 4 2 9 0;
#X connect 9 0 10 0;
#X connect 3 1 11 0;
#X connect 11 0 12 0;
#X connect 12 0 18 0;
#X connect 3 2 13 0;
#X connect 13 0 14 0;
#X connect 14 1 15 0;
#X connect 15 0 16 1;
#X connect 14 0 16 0;
#X connect 16 0 17 0;
#X connect 17 0 18 0;
#X connect 17 1 19 0;
#X connect 17 2 20 0;
#X connect 17 3 21 0;
#X connect 18 0 22 0;
#X connect 19 0 22 1;
#X connect 20 0 23 0;
#X connect 21 0 23 1;
#X connect 22 0 24 0;
#X connect 23 0 24 1;
#X connect 24 0 25 0;
#X connect 26 0 27 1;
#X connect 25 0 27 0;
#X connect 27 0 28 0;
#X connect 29 0 28 1;
#X connect 28 0 30 0;
#X connect 28 0 30 1;
#X connect 31 0 32 0;
#X connect 31 0 33 0;
#X connect 32 0 10 0;
#X connect 33 0 8 0;
